<?xml version="1.0" encoding="utf-8"?>
<!-- Generator: Adobe Illustrator 26.0.3, SVG Export Plug-In . SVG Version: 6.00 Build 0)  -->
<svg version="1.1" id="Layer_1" xmlns="http://www.w3.org/2000/svg" xmlns:xlink="http://www.w3.org/1999/xlink" x="0px" y="0px"
	 viewBox="0 0 949.39 1334.51" style="enable-background:new 0 0 949.39 1334.51;" xml:space="preserve">
<style type="text/css">
	.st0{fill:#FD8469;}
	.st1{fill:#2B3B4E;}
	.st2{fill:#E6E9EE;}
	.st3{fill:#324A5E;}
	.st4{fill:#FFFFFF;}
	.st5{fill:none;stroke:#FFFFFF;stroke-width:42;stroke-linecap:round;stroke-miterlimit:10;}
</style>
<circle class="st0" cx="471.27" cy="467.31" r="435.64"/>
<g>
	
		<ellipse transform="matrix(0.6571 -0.7538 0.7538 0.6571 -58.3471 711.9122)" class="st1" cx="753.33" cy="420.09" rx="113.2" ry="74.78"/>
	
		<ellipse transform="matrix(0.7538 -0.6571 0.6571 0.7538 -229.3953 228.0468)" class="st1" cx="189.63" cy="420.15" rx="74.78" ry="113.2"/>
</g>
<path class="st2" d="M471.27,168.2c-89.87,0-168.77,26.76-216.79,81.64v312.15c48.02,83.7,127.61,148.19,216.79,148.19
	c102.22,0,190.72-83.01,235.32-183.86V274.53C661.99,202.5,573.49,168.2,471.27,168.2z"/>
<path class="st3" d="M827.33,334.91c-22.64-19.9-60.37-16.47-95.36,5.49c-23.33-116.63-131.04-172.89-260.7-172.89
	s-237.37,56.26-260.7,172.89c-34.99-21.95-72.04-25.38-95.36-5.49c-19.9,17.15-24.01,47.34-13.04,79.58
	c1.37-15.09,6.86-28.81,17.84-37.73c20.58-17.84,54.2-15.78,86.44,2.74c0,3.43,0,6.86,0,10.29c0,89.19,41.85,185.92,107.02,249.72
	c-6.17-11.66-12.35-24.01-17.84-37.73c-50.08-121.43-44.59-266.87,28.13-295.69c48.71-19.21,106.34,26.76,147.5,103.59
	c40.48-76.84,98.79-123.49,148.19-103.59c72.72,28.81,78.21,174.26,28.13,295.69c-5.49,13.72-11.66,26.07-17.84,37.73
	c65.18-63.8,107.71-160.54,107.71-249.72c0-3.43,0-6.86,0-10.29c31.56-18.52,65.86-21.27,86.44-2.74
	c10.98,9.6,16.47,22.64,17.84,37.73C851.35,382.24,847.23,352.06,827.33,334.91z"/>
<ellipse class="st4" cx="471.27" cy="638.14" rx="177.69" ry="128.29"/>
<circle class="st3" cx="561.83" cy="439.19" r="31.56"/>
<circle class="st3" cx="372.48" cy="439.19" r="31.56"/>
<ellipse transform="matrix(0.6193 -0.7851 0.7851 0.6193 -421.7793 596.6909)" class="st4" cx="404.44" cy="733.3" rx="5.2" ry="2.4"/>
<g>
	<path class="st2" d="M299.76,671.07C342.29,690.97,402.67,704,471.27,704s128.98-12.35,171.51-32.93
		c3.43-8.92,5.49-18.52,5.49-28.13c-34.99,20.58-93.3,37.05-166.02,38.42v-66.55h-21.95v66.55
		c-72.72-1.37-131.04-17.84-166.02-38.42C294.27,652.55,296.33,662.15,299.76,671.07z"/>
	<path class="st2" d="M529.59,593.55c0,15.09-26.07,54.88-58.31,54.88s-58.31-39.79-58.31-54.88c0-15.09,26.07-27.44,58.31-27.44
		S529.59,578.46,529.59,593.55z"/>
</g>
<path class="st5" d="M52.45,892.17l405.92,271.39c14.93,9.98,34.49,9.65,49.07-0.82l376.64-270.57"/>
</svg>
